<?xml version="1.0" standalone="no"?>
<!DOCTYPE svg PUBLIC "-//W3C//DTD SVG 20010904//EN"
 "http://www.w3.org/TR/2001/REC-SVG-20010904/DTD/svg10.dtd">
<svg version="1.0" xmlns="http://www.w3.org/2000/svg"
 width="471.000000pt" height="471.000000pt" viewBox="0 0 471.000000 471.000000"
 preserveAspectRatio="xMidYMid meet">
<metadata>
Created by potrace 1.14, written by Peter Selinger 2001-2017
</metadata>
<g transform="translate(0.000000,471.000000) scale(0.100000,-0.100000)"
fill="#000000" stroke="none">
<path d="M0 2355 l0 -2355 2355 0 2355 0 0 2355 0 2355 -2355 0 -2355 0 0
-2355z m2599 2188 c201 -51 344 -129 476 -259 86 -85 188 -220 235 -313 72
-142 82 -343 40 -795 -6 -59 -8 -116 -5 -125 4 -13 -3 -16 -48 -14 l-52 1 45
-7 c45 -8 45 -8 8 -9 -41 -2 -70 6 -63 18 3 4 -7 24 -21 45 -14 21 -23 44 -20
51 4 9 -2 14 -17 15 l-22 0 22 9 c20 8 21 13 13 35 -7 18 -6 25 3 25 7 0 4 7
-6 14 -12 9 -14 16 -8 21 19 11 12 22 -31 54 -46 34 -63 39 -54 15 5 -12 0
-11 -22 4 -15 11 -38 23 -52 26 -19 6 -21 5 -10 -3 13 -9 12 -11 -5 -11 -11 0
-37 4 -57 9 -30 7 -35 6 -31 -6 6 -15 -18 -14 -81 4 -10 3 -16 1 -13 -5 7 -10
-68 -22 -148 -22 -33 0 -58 -7 -74 -19 -14 -10 -31 -17 -38 -14 -7 3 -13 -1
-13 -8 0 -11 -3 -11 -10 1 -8 13 -10 12 -10 -4 0 -12 -5 -16 -15 -12 -8 3 -15
1 -15 -5 0 -6 -4 -8 -9 -5 -15 10 -19 -43 -5 -70 13 -24 11 -29 -19 -65 -28
-33 -38 -39 -77 -41 -25 -1 -61 -2 -80 -4 -19 -1 -43 0 -52 3 -17 4 -60 85
-72 136 -5 19 -17 33 -39 42 -17 7 -35 11 -39 9 -5 -3 -8 0 -8 6 0 6 -6 10
-12 8 -7 -1 -28 6 -47 16 -23 12 -58 18 -116 19 -46 1 -81 5 -78 10 2 4 -5 7
-16 7 -12 0 -21 5 -21 10 0 6 -16 10 -35 10 -22 0 -35 5 -35 13 0 22 -86 10
-135 -19 -25 -14 -45 -23 -45 -19 0 4 -7 2 -15 -5 -8 -7 -13 -16 -10 -20 2 -4
-4 -15 -15 -25 -16 -14 -17 -20 -8 -27 9 -5 9 -8 2 -8 -19 0 -24 -28 -8 -45
14 -13 14 -15 -3 -15 -13 0 -14 -3 -5 -8 9 -6 6 -12 -12 -21 -13 -8 -32 -29
-42 -47 -14 -25 -25 -34 -45 -34 l-26 0 -14 133 c-18 172 -19 519 0 612 33
172 179 399 342 536 123 103 204 139 408 184 231 50 321 52 490 8z m-736
-1357 c5 -8 10 -7 16 3 7 11 22 12 64 8 30 -4 64 -10 74 -14 31 -12 -21 -21
-128 -22 -53 -1 -121 -6 -150 -12 -74 -16 -101 -16 -106 -2 -3 8 11 15 39 20
l43 8 -40 6 c-30 5 -33 7 -12 8 15 0 27 6 27 12 0 14 162 0 173 -15z m1132 13
c25 -6 43 -15 40 -19 -3 -5 3 -11 12 -13 13 -3 11 -5 -7 -7 -21 -2 -19 -3 10
-10 19 -4 49 -10 65 -14 l30 -7 -30 15 c-26 14 -26 15 -5 10 45 -12 73 -24 66
-31 -3 -3 1 -14 9 -23 21 -23 37 -116 29 -170 -4 -25 -15 -69 -26 -98 -17 -47
-25 -55 -71 -77 -123 -57 -401 -59 -509 -2 -33 17 -80 74 -98 118 -16 37 -1
53 43 45 19 -4 27 -1 27 9 0 9 9 15 23 15 18 0 19 -2 7 -10 -13 -8 -13 -10 2
-10 9 0 18 4 20 9 2 6 14 11 28 13 14 2 30 6 35 10 6 3 19 2 30 -3 11 -4 16
-8 10 -8 -22 -2 22 -21 49 -21 28 0 29 1 10 15 -16 12 -16 14 -3 15 9 0 22 -7
30 -16 10 -13 26 -14 85 -9 43 4 79 3 90 -3 17 -10 73 2 75 16 0 4 2 28 5 53
4 42 1 49 -31 82 -42 43 -81 61 -168 78 -51 11 -58 14 -37 20 19 5 13 7 -25 8
-48 1 -49 2 -25 15 31 17 146 20 205 5z m-850 -70 c15 -16 10 -14 -19 5 -21
14 -47 26 -57 26 -11 0 -19 5 -19 10 0 14 71 -16 95 -41z m594 47 c-2 -2 -31
-6 -64 -9 -36 -3 -52 -2 -40 3 19 8 113 14 104 6z m-689 -26 c18 -12 2 -12
-25 0 -13 6 -15 9 -5 9 8 0 22 -4 30 -9z m535 0 c-27 -12 -43 -12 -25 0 8 5
22 9 30 9 10 0 8 -3 -5 -9z m-1030 -10 c3 -5 0 -10 -7 -10 -7 0 -3 -7 9 -15
18 -12 22 -25 21 -65 -1 -27 4 -55 10 -63 7 -8 10 -22 6 -31 -10 -25 -43 -19
-54 9 -5 14 -13 25 -18 25 -11 0 -13 -38 -2 -45 4 -3 6 -14 3 -25 -4 -14 0
-20 10 -20 9 0 18 4 21 8 3 5 24 9 47 10 23 1 47 6 53 10 16 12 98 15 105 4 3
-5 34 -13 67 -16 59 -6 61 -5 59 16 -1 13 0 15 2 6 4 -17 17 -23 38 -18 6 1
35 4 65 6 49 4 53 3 37 -10 -18 -14 -18 -14 2 -21 12 -3 21 -11 21 -16 0 -5 7
-9 16 -9 14 0 15 -7 11 -37 -8 -48 -21 -59 -92 -78 -125 -33 -364 -15 -435 33
-14 9 -34 21 -45 27 -27 14 -56 105 -58 180 -2 68 22 121 64 142 29 15 36 16
44 3z m545 -10 c8 -5 11 -10 5 -10 -5 0 -17 5 -25 10 -8 5 -10 10 -5 10 6 0
17 -5 25 -10z m738 3 c-10 -2 -26 -2 -35 0 -10 3 -2 5 17 5 19 0 27 -2 18 -5z
m-955 -60 c-7 -2 -19 -2 -25 0 -7 3 -2 5 12 5 14 0 19 -2 13 -5z m530 -10 c-7
-2 -21 -2 -30 0 -10 3 -4 5 12 5 17 0 24 -2 18 -5z m404 1 c-3 -3 -12 -4 -19
-1 -8 3 -5 6 6 6 11 1 17 -2 13 -5z m-823 -20 c9 -8 16 -23 16 -32 1 -15 2
-15 11 1 13 22 31 23 22 1 -5 -13 -1 -15 18 -10 23 7 24 7 4 -9 -11 -9 -21
-12 -23 -7 -3 9 -29 5 -89 -13 -27 -9 -30 -25 -5 -25 14 0 15 -2 2 -10 -25
-15 -35 18 -17 54 8 17 18 39 21 49 7 21 20 22 40 1z m744 -72 c-4 -2 -16 1
-27 7 -11 6 -35 11 -53 11 -18 0 -40 5 -48 11 -12 8 -10 9 7 4 18 -5 22 -3 17
9 -8 22 12 20 26 -1 11 -17 11 -17 6 0 -4 13 0 20 14 24 11 3 20 10 20 17 1 6
11 -9 23 -34 12 -25 19 -46 15 -48z m-1433 47 c-3 -4 11 -17 31 -29 36 -23 36
-23 29 -79 -3 -31 -6 -74 -7 -96 -1 -27 -8 -45 -22 -56 -15 -12 -19 -26 -18
-57 2 -32 -2 -44 -21 -59 -51 -39 -12 -164 73 -235 39 -32 40 -34 42 -105 2
-40 6 -73 9 -73 10 0 16 -71 7 -76 -12 -8 -144 84 -175 120 -39 47 -72 120
-98 219 -13 51 -35 122 -49 160 -31 81 -32 97 -7 170 11 31 23 77 27 103 l7
46 15 -32 c8 -17 18 -27 21 -22 3 6 22 13 43 17 29 6 40 3 57 -14 12 -12 21
-17 21 -12 0 5 -18 25 -40 45 -27 24 -50 36 -69 36 -55 0 -44 33 16 49 30 8
115 -8 108 -20z m1114 7 c10 -9 26 -47 35 -84 10 -37 29 -89 43 -117 29 -56
53 -87 53 -67 0 9 6 8 23 -3 59 -38 128 -49 302 -50 141 0 178 3 218 18 28 11
44 23 41 29 -5 7 -2 8 5 4 30 -19 81 75 96 177 7 43 10 47 42 53 18 3 37 4 40
0 4 -3 -3 -6 -15 -6 -27 0 -27 -5 -1 -38 24 -31 66 -32 132 -1 60 27 112 25
142 -6 33 -32 31 -42 -4 -37 -30 4 -71 -12 -71 -28 0 -6 8 -10 19 -10 10 0 24
-7 31 -15 18 -21 25 -19 38 13 9 22 11 2 8 -103 -2 -114 -6 -137 -28 -185 -13
-30 -42 -107 -63 -170 -21 -63 -50 -132 -64 -152 -14 -20 -63 -62 -108 -92
-80 -55 -82 -56 -93 -35 -7 11 -14 18 -18 15 -3 -4 -12 4 -20 16 -13 23 -13
23 -7 -4 3 -16 1 -28 -5 -28 -5 0 -10 -9 -10 -20 0 -25 -21 -70 -33 -70 -5 0
-8 -23 -5 -55 3 -31 1 -50 -3 -43 -5 7 -9 23 -9 36 0 12 -5 22 -11 22 -5 0 -7
-6 -3 -12 5 -9 2 -9 -9 1 -15 12 -17 10 -17 -16 0 -31 -16 -58 -38 -64 -9 -3
-7 -11 8 -27 12 -13 16 -22 8 -22 -9 0 -9 -3 0 -12 7 -7 12 -16 12 -21 0 -14
-27 18 -33 39 -3 11 -5 5 -6 -16 -2 -34 -3 -34 -13 -10 l-11 25 -7 -30 c-4
-16 -8 -22 -9 -12 -2 35 -19 15 -26 -31 -8 -61 -20 -82 -28 -52 -4 16 -11 21
-23 16 -11 -4 -31 4 -58 26 l-41 32 27 -35 c21 -28 24 -39 15 -48 -9 -9 -8
-11 4 -6 10 4 19 3 22 -2 3 -4 -6 -9 -19 -9 -15 -1 -24 4 -24 13 0 8 -4 12
-10 8 -6 -3 -6 -15 0 -29 8 -21 6 -23 -12 -19 -11 3 -23 15 -27 26 -7 18 -8
17 -19 -9 -7 -16 -10 -39 -8 -52 3 -13 1 -20 -5 -17 -5 4 -7 10 -5 14 3 4 -5
7 -17 8 -12 0 -16 -1 -9 -4 6 -3 12 -9 12 -14 0 -4 -7 -6 -15 -3 -9 4 -18 -1
-21 -11 -4 -9 -12 -14 -19 -11 -19 7 -27 -5 -14 -21 6 -7 8 -13 4 -13 -4 0 0
-11 9 -25 12 -18 13 -25 4 -25 -8 0 -7 -4 4 -10 20 -12 12 -50 -11 -50 -14 0
-14 2 -1 10 13 8 12 10 -2 10 -10 0 -18 5 -18 11 0 5 -3 8 -8 5 -4 -2 -16 2
-27 10 -10 8 -14 14 -7 14 15 0 3 31 -17 47 -12 9 -13 12 -2 13 7 0 11 6 7 15
-3 8 -1 15 3 15 5 0 12 7 15 16 3 8 2 12 -4 9 -5 -3 -18 3 -29 14 -11 11 -21
15 -23 10 -2 -5 -14 -10 -28 -11 -14 -1 -34 -9 -45 -17 -18 -15 -19 -15 -7 1
7 9 9 18 5 21 -13 7 -64 -18 -56 -28 5 -4 2 -5 -4 -1 -17 10 -16 26 1 26 7 0
25 11 40 25 14 13 27 24 29 22 1 -1 12 6 25 15 13 9 19 19 14 22 -6 3 -13 0
-16 -6 -5 -11 -7 -11 -12 0 -3 6 -11 9 -16 6 -6 -4 -8 -2 -5 3 4 6 24 13 45
16 29 5 49 18 83 55 24 27 49 56 54 65 11 18 78 26 109 12 17 -8 19 -5 13 26
l-7 34 19 -23 c11 -12 21 -26 23 -31 2 -5 14 -12 27 -16 16 -5 21 -4 17 4 -4
6 -14 11 -22 11 -8 0 -14 7 -14 16 0 8 5 12 10 9 6 -3 10 -1 10 4 0 6 7 11 16
11 8 0 12 5 9 10 -3 6 -13 10 -21 10 -8 0 -12 -4 -9 -10 10 -17 -4 -11 -25 10
-11 11 -20 24 -20 29 0 5 -6 12 -12 14 -10 4 -10 6 -1 6 6 1 18 -8 26 -19 8
-11 17 -17 20 -14 3 4 -6 22 -20 41 -29 37 -24 56 7 28 11 -10 20 -13 20 -8 0
13 -71 58 -85 54 -5 -1 -7 1 -2 5 9 9 -23 45 -34 38 -5 -3 -19 1 -31 7 -21 11
-22 11 -9 -4 19 -24 -1 -21 -27 3 -22 20 -37 27 -28 11 3 -4 -6 -13 -20 -20
-14 -6 -22 -16 -19 -21 8 -14 -7 -12 -25 3 -21 17 -53 77 -46 84 8 9 -34 53
-51 53 -26 0 -12 26 21 38 53 19 86 50 86 79 0 15 -3 24 -6 20 -3 -3 -16 4
-29 17 -12 12 -36 28 -53 35 -28 12 -37 11 -77 -9 -37 -18 -56 -21 -93 -16
-26 4 -58 8 -70 9 -13 2 -28 10 -33 19 -5 9 -31 22 -58 29 -26 6 -53 20 -60
31 -11 18 -6 31 71 172 23 42 22 50 -2 26 -23 -23 -70 -27 -70 -6 0 8 5 27 11
43 8 22 12 25 20 13 9 -12 10 -10 6 7 -3 13 3 30 17 45 11 12 20 23 18 23 -7
0 12 41 26 58 8 9 12 17 9 17 -10 0 42 143 56 152 19 14 126 2 146 -16z m130
-17 c9 -27 8 -28 -8 -19 -10 5 -20 7 -23 5 -3 -3 -5 1 -5 8 0 6 -4 20 -8 29
-5 13 -2 15 14 11 11 -3 24 -18 30 -34z m841 -21 c0 -5 -5 -6 -11 -3 -6 4 -17
-1 -24 -11 -13 -18 -14 -18 -15 -1 0 9 5 17 10 17 6 0 10 7 10 16 0 14 3 14
15 4 8 -7 15 -17 15 -22z m-470 13 c0 -13 -41 -41 -59 -41 -10 0 -8 7 9 25 24
25 50 33 50 16z m-1494 -28 c38 -172 74 -215 202 -242 83 -17 305 -13 384 8
59 15 66 15 55 2 -7 -9 -18 -20 -24 -24 -22 -14 -15 -37 9 -34 17 1 24 -4 26
-21 3 -19 6 -21 18 -11 11 9 18 9 26 1 9 -9 5 -19 -15 -40 -15 -16 -30 -38
-32 -50 -3 -12 -7 -30 -9 -39 -2 -10 -13 -46 -25 -80 -25 -74 -26 -96 -6 -113
8 -7 12 -17 9 -22 -4 -6 1 -8 12 -4 11 3 29 -3 43 -13 l24 -19 -31 -16 c-38
-19 -39 -24 -11 -34 18 -7 17 -9 -14 -24 -22 -10 -39 -13 -48 -7 -11 7 -11 9
4 9 9 0 17 5 17 11 0 5 5 7 12 3 6 -4 8 -3 5 3 -8 13 -64 4 -78 -13 -6 -8 -18
-14 -25 -14 -8 0 -19 -11 -26 -25 -6 -13 -15 -22 -20 -19 -4 3 -20 -4 -34 -15
-15 -11 -30 -18 -35 -15 -5 3 -9 0 -9 -6 0 -6 -4 -9 -8 -6 -4 2 -14 1 -22 -5
-10 -6 -11 -9 -2 -9 19 0 14 -18 -8 -25 -11 -4 -18 -11 -14 -16 3 -5 -11 -26
-30 -45 -39 -39 -43 -46 -22 -38 8 3 23 1 33 -4 17 -10 17 -11 -2 -18 -11 -4
-28 -15 -38 -26 -17 -17 -17 -18 0 -19 11 0 13 -3 6 -6 -19 -7 -16 -23 4 -23
13 0 14 -3 5 -12 -17 -17 -15 -31 3 -24 22 8 18 -7 -5 -21 -16 -11 -18 -10
-14 2 4 9 0 15 -9 15 -46 0 -80 36 -89 94 -2 11 -6 18 -11 15 -8 -5 -51 59
-51 79 -1 7 -7 16 -14 21 -7 4 -12 14 -10 22 2 8 -3 13 -9 12 -12 -3 -18 22
-14 55 1 6 -3 12 -9 12 -6 0 -9 4 -5 9 3 5 1 12 -4 15 -5 3 -7 15 -4 26 3 11
0 20 -6 20 -6 0 -11 13 -11 29 0 17 -4 33 -10 36 -5 3 -10 14 -10 23 0 15 2
15 10 2 6 -9 10 -10 10 -3 0 6 -7 18 -15 26 -15 16 -19 38 -30 172 -4 44 -15
126 -26 183 -28 150 -24 322 7 322 8 0 16 -12 20 -27z m399 -11 c-6 -7 -35 18
-35 31 0 5 9 2 20 -8 11 -10 18 -20 15 -23z m720 -12 c3 -5 2 -10 -4 -10 -5 0
-13 5 -16 10 -3 6 -2 10 4 10 5 0 13 -4 16 -10z m-1163 -317 c2 -73 5 -108 13
-158 5 -34 5 -37 -6 -20 -6 11 -19 27 -28 36 -56 57 -58 63 -35 129 31 88 53
93 56 13z m718 -145 c0 -7 -4 -19 -9 -26 -7 -11 -10 -10 -15 3 -10 26 -7 35 9
35 8 0 15 -6 15 -12z m387 -178 c-3 -22 -38 -40 -58 -29 -14 7 -17 4 -14 -16
1 -14 -2 -25 -7 -25 -5 0 -6 -4 -3 -10 3 -5 1 -10 -4 -10 -6 0 -11 -12 -11
-27 0 -24 -1 -25 -17 -11 -18 15 -60 15 -76 -1 -4 -4 -9 -17 -10 -29 0 -11 -5
-18 -9 -15 -5 2 -6 13 -3 24 5 15 3 17 -11 12 -11 -4 -15 -3 -10 5 10 17 -4
61 -18 56 -6 -2 -12 4 -13 15 -2 25 19 32 55 19 36 -14 86 3 108 37 12 18 23
22 59 21 34 -1 44 -5 42 -16z m33 -110 c0 -5 -5 -10 -11 -10 -5 0 -7 5 -4 10
3 6 8 10 11 10 2 0 4 -4 4 -10z m-156 -26 c3 -8 2 -12 -4 -9 -6 3 -10 10 -10
16 0 14 7 11 14 -7z m90 -34 c15 -5 26 -17 26 -27 -1 -16 -2 -16 -17 2 -14 17
-15 18 -9 2 3 -10 1 -27 -5 -38 -18 -35 -4 -45 25 -16 33 33 34 33 29 3 -7
-34 24 -78 50 -70 13 4 17 2 13 -5 -4 -6 -2 -11 3 -11 6 0 11 -9 11 -21 0 -21
-14 -22 -100 -3 -8 1 -29 6 -46 9 -19 4 -34 3 -38 -4 -4 -6 -18 -11 -32 -11
-13 0 -24 -4 -24 -10 0 -15 -56 -12 -69 4 -14 17 -86 36 -135 36 -40 0 -51 24
-16 35 11 3 20 11 20 16 0 6 5 7 10 4 6 -3 10 -1 10 4 0 6 3 10 8 10 21 -4 32
3 32 20 0 10 6 21 13 24 10 4 13 -2 9 -19 -2 -13 1 -25 7 -25 6 -1 17 -2 24
-3 14 -2 36 23 37 42 0 7 -4 10 -10 7 -6 -4 -7 1 -3 11 4 11 8 13 11 6 6 -18
22 -14 22 5 0 9 3 13 7 9 10 -9 10 -76 1 -70 -5 3 -8 -2 -8 -11 0 -12 4 -14
16 -7 9 5 25 7 35 5 11 -3 19 0 19 6 0 6 8 11 18 11 13 0 14 2 3 9 -11 7 -10
10 3 18 14 8 15 14 7 36 -12 30 -2 34 43 17z m759 -53 c-3 -5 -10 -4 -15 1 -6
6 -7 16 -3 22 6 9 9 9 16 -1 4 -7 5 -17 2 -22z m-533 -17 c0 -5 -4 -10 -9 -10
-6 0 -13 5 -16 10 -3 6 1 10 9 10 9 0 16 -4 16 -10z m539 -44 c-9 -8 -10 -7
-5 7 3 10 7 26 7 35 1 9 4 6 6 -7 3 -13 -1 -28 -8 -35z m-24 15 c0 -16 -3 -27
-7 -25 -4 2 -10 -6 -13 -17 -7 -21 -8 -21 -17 -4 -8 13 -7 20 6 27 9 5 16 18
16 28 0 11 3 20 8 20 4 0 7 -13 7 -29z m-574 -91 c5 0 9 -4 9 -10 0 -5 -7 -10
-15 -10 -10 0 -15 9 -14 28 1 16 3 20 6 10 2 -10 9 -18 14 -18z m503 -30 c4
-25 3 -31 -4 -20 -5 8 -10 26 -10 39 0 32 6 24 14 -19z m-24 -35 c0 -8 -4 -15
-10 -15 -5 0 -10 7 -10 15 0 8 5 15 10 15 6 0 10 -7 10 -15z m-1145 -52 c13
-27 30 -60 37 -75 6 -15 20 -29 31 -32 31 -8 11 -23 -30 -22 -22 1 -43 -5 -51
-14 -11 -13 -12 -11 -7 13 5 26 4 27 -15 17 -26 -14 -45 -4 -29 16 9 11 8 14
-5 14 -9 0 -16 5 -16 10 0 10 15 14 35 10 6 -1 5 4 -2 11 -9 9 -16 9 -25 1
-16 -13 -68 -11 -60 3 3 6 14 16 24 23 23 17 23 29 -2 37 -28 9 -25 25 5 25
17 0 25 -6 26 -17 0 -11 3 -13 6 -5 2 6 9 10 14 6 5 -3 9 -2 8 3 -7 43 29 27
56 -24z m581 -18 c2 -22 0 -24 -14 -13 -14 11 -14 11 -5 -6 12 -22 8 -28 -43
-64 -17 -12 -34 -19 -37 -15 -4 3 -9 -1 -13 -10 -3 -9 -11 -14 -17 -12 -7 2
-54 6 -106 9 -52 3 -98 11 -101 17 -4 6 -10 10 -14 9 -4 -1 -20 3 -36 10 -25
11 -29 16 -23 39 8 33 13 40 13 15 0 -14 8 -20 27 -22 15 -1 30 -7 34 -13 4
-8 8 -8 13 -1 4 6 20 9 36 7 17 -2 30 1 30 6 0 23 20 6 21 -18 l1 -28 7 25 c8
28 39 37 70 20 18 -9 21 -8 21 10 0 23 18 27 26 5 9 -22 24 -18 24 5 0 16 5
19 25 16 23 -4 25 -2 19 17 -6 19 -5 20 10 8 14 -12 16 -12 10 3 -4 11 -2 15
7 11 8 -3 15 -17 15 -30z m44 -14 c0 -9 -20 -37 -20 -29 0 3 -2 13 -5 21 -4 8
0 14 10 14 8 0 15 -3 15 -6z m445 -61 c-3 -4 2 -10 10 -14 8 -3 15 -11 15 -17
0 -8 -4 -8 -15 1 -10 9 -15 9 -15 1 0 -6 -5 -11 -11 -11 -6 0 -9 6 -6 14 3 8
2 30 -3 48 l-9 33 19 -24 c11 -12 18 -27 15 -31z m-1180 0 c3 -5 1 -10 -4 -10
-6 0 -11 5 -11 10 0 6 2 10 4 10 3 0 8 -4 11 -10z m215 -50 c0 -5 -2 -10 -4
-10 -3 0 -8 5 -11 10 -3 6 -1 10 4 10 6 0 11 -4 11 -10z m285 -20 c3 -5 3 -10
-2 -10 -4 0 -18 -3 -30 -6 -17 -5 -23 -2 -23 10 0 18 45 23 55 6z m-386 -17
c-7 -10 -15 -20 -16 -22 -2 -2 -3 5 -3 17 0 14 6 22 16 22 14 0 15 -3 3 -17z
m41 3 c0 -3 -4 -8 -10 -11 -5 -3 -10 -1 -10 4 0 6 5 11 10 11 6 0 10 -2 10 -4z
m1079 -376 c18 -83 15 -165 -7 -271 -22 -104 -82 -232 -119 -256 -20 -13 -123
-207 -123 -232 0 -6 -13 -25 -28 -43 -16 -18 -31 -41 -35 -50 -3 -10 -30 -60
-60 -110 -29 -51 -60 -109 -70 -129 -23 -49 -39 -61 -68 -50 -14 5 -34 5 -48
0 -20 -8 -33 -1 -91 46 -37 31 -71 66 -74 78 -4 14 -37 41 -89 72 -59 37 -83
57 -85 74 -3 17 -9 22 -22 18 -21 -6 -144 98 -134 114 3 5 0 9 -5 9 -6 0 -11
7 -11 15 0 8 -7 15 -15 15 -8 0 -15 4 -15 10 0 10 -14 29 -62 83 -16 18 -28
36 -28 42 0 5 -14 26 -31 45 -17 19 -61 80 -96 135 -36 55 -78 118 -93 140
-41 60 -66 113 -85 182 -15 52 -16 74 -7 145 6 45 14 125 18 176 4 50 10 92
15 92 5 0 9 -9 9 -19 0 -11 5 -23 10 -26 6 -3 10 -14 10 -23 0 -9 14 -30 30
-46 17 -16 30 -37 30 -47 0 -9 11 -27 25 -40 13 -13 25 -29 25 -36 0 -7 13
-26 29 -42 28 -28 44 -58 38 -72 -1 -3 13 -18 31 -33 17 -15 32 -34 32 -42 0
-8 5 -14 10 -14 6 0 10 -11 10 -25 0 -14 4 -25 9 -25 5 0 9 -11 9 -25 0 -29
20 -58 37 -51 7 2 10 -6 7 -25 -3 -19 0 -29 8 -29 7 0 21 -10 31 -22 18 -20
19 -20 19 -2 0 11 -6 27 -12 35 -7 7 15 -13 50 -46 34 -33 62 -54 62 -47 0 7
-8 20 -19 31 -21 21 -12 47 13 38 10 -4 16 -1 16 7 0 13 43 13 236 2 49 -3 80
0 99 10 15 7 45 19 68 25 23 6 54 20 68 30 15 10 32 19 38 19 6 0 11 5 11 10
0 6 5 10 11 10 13 0 74 50 62 51 -4 0 0 4 10 8 10 4 19 11 20 15 1 5 17 25 35
44 17 20 32 41 32 48 0 7 4 14 8 16 4 2 30 35 57 73 27 39 56 76 63 84 8 8 23
34 33 58 10 24 23 43 28 43 5 0 12 10 16 23 3 12 12 33 18 46 10 20 13 -1 18
-130 4 -85 12 -179 18 -209z m-478 281 c14 -16 15 -23 3 -50 -7 -17 -11 -31
-9 -31 15 0 20 3 18 11 -4 12 14 11 22 -1 3 -5 1 -10 -6 -10 -8 0 -8 -4 1 -15
8 -10 9 -15 2 -15 -7 0 -9 -7 -5 -17 6 -15 5 -16 -9 -3 -11 11 -12 17 -4 22 8
6 8 8 -1 8 -17 0 -25 -17 -13 -25 8 -5 7 -12 -2 -23 -10 -12 -10 -14 -1 -8 9
5 11 2 7 -9 -5 -11 -14 -15 -28 -11 -19 5 -20 4 -3 -8 23 -18 22 -29 -3 -16
-20 11 -24 4 -23 -37 1 -23 -29 -10 -40 17 -3 8 -4 -5 -2 -30 2 -25 2 -36 -1
-25 -8 27 -24 43 -24 23 0 -20 -49 -21 -57 -2 -8 23 -25 16 -18 -7 6 -19 5
-20 -15 -9 -18 10 -21 18 -16 43 4 23 3 28 -4 17 -5 -8 -10 -26 -11 -40 -1
-23 -2 -23 -9 5 -7 29 -9 28 -23 -15 -3 -9 -6 -4 -6 10 -1 14 -6 32 -12 40 -8
12 -9 9 -5 -12 7 -32 -2 -60 -17 -51 -6 4 -8 0 -4 -10 3 -10 2 -17 -3 -17 -17
0 -20 19 -4 34 8 9 11 16 5 16 -5 0 -13 -4 -16 -10 -13 -21 -23 -9 -20 24 3
30 1 34 -18 30 -11 -2 -28 -11 -36 -20 -9 -9 -11 -14 -4 -10 6 3 14 2 18 -4 4
-6 11 -8 16 -4 6 3 7 -4 4 -18 -4 -16 -1 -29 9 -37 9 -8 16 -18 16 -23 0 -5
-7 -2 -16 6 -8 9 -20 16 -26 16 -5 0 -8 6 -5 14 3 7 -4 21 -15 30 -17 15 -19
27 -16 76 2 32 1 57 -3 54 -4 -2 -13 11 -20 30 -7 19 -16 33 -21 30 -4 -3 -8
-1 -8 5 0 6 9 15 20 21 16 9 20 8 20 -5 0 -9 5 -13 10 -10 22 13 31 -7 15 -32
-12 -18 -13 -24 -3 -22 35 4 41 -1 23 -21 -29 -32 -2 -23 29 9 17 18 34 27 44
24 8 -4 21 2 28 12 8 11 14 13 14 6 0 -7 5 -9 10 -6 6 3 10 0 10 -7 0 -7 6 -4
12 7 16 30 18 31 29 15 8 -11 12 -12 15 -3 3 7 12 9 20 6 7 -3 12 -8 10 -12
-3 -4 5 -7 17 -8 12 0 17 1 10 4 -7 2 -9 11 -6 19 3 8 0 14 -7 14 -6 0 -8 5
-5 10 3 6 15 10 25 10 10 0 21 6 24 13 5 9 7 9 12 -1 3 -6 10 -10 15 -6 5 3
12 -2 15 -10 3 -9 11 -16 17 -16 7 0 7 4 -1 12 -20 20 -14 37 10 30 17 -4 20
-2 15 11 -9 23 14 22 34 -2z m-507 -36 c-4 -8 -8 -15 -10 -15 -2 0 -4 7 -4 15
0 8 4 15 10 15 5 0 7 -7 4 -15z m12 -30 c-3 -9 1 -15 11 -15 12 0 13 -3 3 -14
-23 -29 -47 -1 -27 32 11 17 20 15 13 -3z m-169 -11 c-3 -3 -12 -4 -19 -1 -8
3 -5 6 6 6 11 1 17 -2 13 -5z m213 -44 c0 -5 -5 -10 -11 -10 -5 0 -7 5 -4 10
3 6 8 10 11 10 2 0 4 -4 4 -10z m4 -72 c-1 -13 -3 -27 -3 -31 -1 -5 -5 -5 -11
-2 -14 9 -12 42 3 48 6 3 12 6 13 6 0 1 0 -9 -2 -21z m421 -38 c-3 -5 -1 -19
5 -30 6 -11 8 -20 6 -20 -3 0 -12 14 -21 30 -14 27 -14 30 0 30 9 0 13 -4 10
-10z m-110 -49 c3 -5 1 -12 -5 -16 -5 -3 -10 1 -10 9 0 18 6 21 15 7z"/>
<path d="M1720 3188 c0 -4 14 -8 30 -8 17 0 30 2 30 4 0 2 -13 6 -30 8 -16 3
-30 1 -30 -4z"/>
<path d="M1798 3183 c6 -2 18 -2 25 0 6 3 1 5 -13 5 -14 0 -19 -2 -12 -5z"/>
<path d="M1938 3173 c12 -2 30 -2 40 0 9 3 -1 5 -23 4 -22 0 -30 -2 -17 -4z"/>
<path d="M2910 3180 c0 -5 4 -10 9 -10 6 0 13 5 16 10 3 6 -1 10 -9 10 -9 0
-16 -4 -16 -10z"/>
<path d="M2963 3163 c9 -2 25 -2 35 0 9 3 1 5 -18 5 -19 0 -27 -2 -17 -5z"/>
<path d="M1460 3014 c0 -14 4 -23 10 -19 6 3 10 15 10 26 0 10 -4 19 -10 19
-5 0 -10 -12 -10 -26z"/>
<path d="M3316 2753 c-18 -89 -37 -252 -32 -283 3 -19 3 -28 -1 -20 -9 20 -42
-85 -43 -135 0 -23 -4 -35 -8 -28 -4 7 -9 -10 -10 -37 -1 -28 -2 -53 -3 -58
-3 -18 15 -52 27 -52 17 0 27 39 22 84 -2 19 0 32 4 30 10 -6 22 42 13 55 -3
6 8 26 26 46 17 19 39 44 47 57 17 23 19 23 -35 1 -14 -5 -16 4 -14 52 1 17 3
59 5 95 5 111 4 109 32 61 30 -49 44 -42 44 20 0 44 -22 68 -45 49 -13 -11
-15 -8 -16 16 -1 16 0 39 1 52 2 31 -7 28 -14 -5z"/>
<path d="M3172 2155 c0 -16 2 -22 5 -12 2 9 2 23 0 30 -3 6 -5 -1 -5 -18z"/>
<path d="M3151 2074 c0 -11 3 -14 6 -6 3 7 2 16 -1 19 -3 4 -6 -2 -5 -13z"/>
<path d="M3105 2014 c9 -9 18 -14 21 -11 9 9 -6 27 -22 27 -13 0 -13 -2 1 -16z"/>
<path d="M2846 1835 c4 -8 11 -15 16 -15 6 0 5 6 -2 15 -7 8 -14 15 -16 15 -2
0 -1 -7 2 -15z"/>
<path d="M2894 1771 c21 -23 26 -26 26 -11 0 5 -10 15 -22 21 -23 12 -23 12
-4 -10z"/>
<path d="M2607 1664 c6 -15 23 -19 23 -5 0 5 -7 11 -14 14 -10 4 -13 1 -9 -9z"/>
<path d="M1745 2030 c-3 -5 -1 -10 4 -10 6 0 11 5 11 10 0 6 -2 10 -4 10 -3 0
-8 -4 -11 -10z"/>
<path d="M2476 2033 c-6 -14 -5 -15 5 -6 7 7 10 15 7 18 -3 3 -9 -2 -12 -12z"/>
<path d="M1840 1789 c0 -5 5 -7 10 -4 6 3 10 8 10 11 0 2 -4 4 -10 4 -5 0 -10
-5 -10 -11z"/>
<path d="M1650 1479 c0 -5 5 -7 10 -4 6 3 10 8 10 11 0 2 -4 4 -10 4 -5 0 -10
-5 -10 -11z"/>
<path d="M2047 931 c-3 -11 -1 -21 5 -21 5 0 6 -4 3 -10 -8 -13 -35 11 -28 25
2 6 -2 2 -11 -9 -14 -17 -13 -22 7 -57 12 -21 28 -39 35 -39 6 0 12 -4 12 -10
0 -5 -7 -6 -17 -3 -11 4 -14 3 -9 -5 12 -21 67 -44 91 -39 16 3 22 0 18 -10
-3 -7 1 -13 10 -13 8 0 21 -8 28 -17 12 -15 12 -16 -3 -10 -10 3 -18 2 -18 -3
0 -6 8 -10 18 -10 11 0 27 -9 38 -21 16 -18 65 -50 84 -54 3 -1 12 -4 20 -7
39 -15 62 -16 56 -3 -3 9 0 12 10 8 8 -3 21 0 29 7 12 10 12 14 0 26 -7 8 -17
14 -22 14 -4 0 -25 5 -46 11 -27 7 -37 15 -33 25 3 8 1 14 -3 14 -5 0 -23 12
-40 28 -52 46 -60 52 -69 52 -5 0 -17 9 -26 19 -10 11 -30 24 -45 30 -15 7
-35 24 -44 39 -17 25 -18 25 -11 3 4 -17 3 -22 -7 -19 -8 3 -13 14 -11 26 2
12 -1 29 -6 38 -8 14 -10 14 -15 -5z m63 -137 c0 -2 -7 -4 -15 -4 -8 0 -15 4
-15 10 0 5 7 7 15 4 8 -4 15 -8 15 -10z m170 -134 c0 -5 -2 -10 -4 -10 -3 0
-8 5 -11 10 -3 6 -1 10 4 10 6 0 11 -4 11 -10z"/>
<path d="M2075 740 c3 -5 8 -10 11 -10 2 0 4 5 4 10 0 6 -5 10 -11 10 -5 0 -7
-4 -4 -10z"/>
<path d="M2120 699 c0 -12 68 -59 84 -59 18 0 2 22 -21 31 -16 6 -36 18 -45
26 -15 13 -18 13 -18 2z"/>
<path d="M2220 635 c0 -6 56 -35 67 -35 14 1 -39 40 -53 40 -8 0 -14 -2 -14
-5z"/>
<path d="M2580 1541 c0 -5 5 -13 10 -16 6 -3 10 -2 10 4 0 5 -4 13 -10 16 -5
3 -10 2 -10 -4z"/>
<path d="M2460 1511 c0 -6 4 -13 10 -16 6 -3 7 1 4 9 -7 18 -14 21 -14 7z"/>
<path d="M2550 1454 c0 -5 7 -18 15 -28 8 -11 15 -16 15 -10 0 5 -7 18 -15 28
-8 11 -15 16 -15 10z"/>
<path d="M2443 1426 c9 -7 17 -16 17 -20 0 -9 26 -36 34 -36 3 0 2 7 -1 17 -5
12 -3 14 8 8 8 -5 11 -5 6 1 -5 5 -14 9 -20 9 -7 1 -11 7 -9 14 1 7 -2 10 -7
7 -5 -4 -12 -2 -16 4 -3 5 -12 10 -18 10 -7 0 -4 -7 6 -14z"/>
<path d="M2515 1379 c-4 -6 -4 -13 -1 -16 3 -4 6 0 6 8 0 11 2 11 10 -1 8 -13
10 -12 10 3 0 19 -15 23 -25 6z"/>
<path d="M2445 1329 c-11 -17 1 -21 15 -4 8 9 8 15 2 15 -6 0 -14 -5 -17 -11z"/>
</g>
</svg>
